<svg width="133" height="133" viewBox="0 0 133 133" fill="none" xmlns="http://www.w3.org/2000/svg">
<path fill-rule="evenodd" clip-rule="evenodd" d="M67.6289 28.0713C66.997 28.0603 66.3226 28.0479 65.6074 28.0348C61.0904 27.9521 54.9435 27.8396 47.5582 27.8396C43.4791 27.8396 42.6352 27.9802 42.6352 30.7934C42.6352 32.9033 44.0418 34.4505 47.4176 34.4505H59.9363C60.2176 37.6857 60.4989 42.4681 60.6396 51.8923V52.8769C58.5807 53.831 56.3785 54.803 54.0776 55.8186C49.9335 57.6477 45.4694 59.618 40.9473 61.8791C39.822 52.7363 38.1341 42.8901 37.0088 37.1231C34.7582 26.011 29.4132 22.7758 22.8022 22.7758C15.4879 22.7758 3.67253 32.7626 3.67253 41.2022C3.67253 49.6418 16.4725 50.767 24.7714 50.767C26.8813 50.767 29.1319 50.6264 31.2418 50.4857C32.0857 55.6901 32.789 61.1758 33.3517 65.9582C31.1011 67.2242 28.8506 68.6308 26.7407 70.0374C20.833 73.8352 12.8154 81.4308 12.8154 87.1978C12.8154 93.1055 21.2549 96.3407 28.0066 96.3407C37.9934 96.3407 42.2132 88.1824 42.2132 77.4923C42.2132 75.3824 42.0725 72.8505 41.7912 70.178L54.0286 63.989C55.8223 63.1393 57.3626 62.353 58.8621 61.5876C59.5967 61.2126 60.3215 60.8425 61.0615 60.4725C61.109 61.9907 61.1724 63.4129 61.2357 64.8308C61.36 67.6167 61.4835 70.3862 61.4835 73.8352C61.4835 74.9604 61.4835 95.6374 61.3429 103.655C61.3429 107.312 63.7341 109.844 67.6725 109.844C70.0637 109.844 70.9077 108.859 70.767 106.046L69.7824 90.433C69.7319 89.5741 69.6995 88.316 69.6592 86.75C69.5873 83.9559 69.4902 80.1815 69.2198 75.9451C68.5208 66.159 68.0997 55.4003 67.8184 34.8307L67.6289 28.0713ZM30.2571 44.7187C21.1143 45.422 11.8308 44.8593 11.8308 40.2176C11.8308 35.5758 19.989 29.2461 24.4901 29.2461C25.8967 29.2461 26.4593 29.9494 27.3033 32.0593C28.0066 33.8879 29.1319 38.811 30.2571 44.7187ZM34.1956 74.3978V76.6483C34.1956 83.2593 31.5231 90.5736 24.7714 90.5736C22.9429 90.5736 21.6769 89.589 21.6769 88.0418C21.6769 83.4 27.022 78.8989 34.1956 74.3978Z" fill="#8F0F0F"/>
<path d="M130.593 84.0732C130.804 87.5545 130.804 90.9303 130.804 94.3061V105.489C130.804 107.493 130.277 109.814 127.323 109.814C125.108 109.814 124.264 108.759 124.264 106.438C124.264 104.434 125.002 95.5721 125.002 91.7743C125.002 82.0688 124.264 72.6798 120.044 72.6798C117.09 72.6798 114.769 73.8402 110.971 77.849C107.49 81.5413 105.38 86.7105 105.169 94.9391C105.064 98.4204 105.697 102.746 105.697 106.122C105.697 107.809 104.22 109.497 102.004 109.497C100.422 109.497 99.2614 108.442 99.1559 105.172C99.0504 101.796 99.2614 98.4204 99.0504 91.4578C98.8394 85.9721 98.4174 78.7984 98.4174 74.0512C98.4174 69.4094 97.8899 62.7633 97.8899 58.649V47.6776C97.8899 42.9303 97.8899 39.027 100.316 39.027C104.853 39.027 104.325 41.7699 104.009 46.0951C103.692 50.9479 103.587 60.9699 103.692 65.6116C103.798 71.9413 103.798 75.2116 103.903 78.9039C108.65 71.0973 114.558 66.8776 120.677 66.8776C128.905 66.8776 129.96 74.3677 130.593 84.0732Z" fill="#8F0F0F"/>
<path d="M83.3866 67.5105C92.1427 67.5105 96.8899 73.9457 96.8899 83.5457C96.8899 91.6687 94.4635 97.7874 90.1383 102.113C85.2855 106.965 77.0825 109.834 68.01 109.834C64.6086 109.705 64.6086 109.392 64.6086 106.438C64.6086 97.049 64.7141 91.8797 64.5031 85.8666C64.2921 81.0138 63.8701 74.2622 63.6591 67.405L63.2372 56.9611C63.1317 54.4292 62.9207 51.2643 62.6042 45.7786C62.3932 42.1918 61.9712 39.9764 65.2416 39.9764C68.1954 39.9764 68.01 42.0429 68.01 46.3682C68.01 53.3308 68.01 60.1496 68.01 64.4748C68.01 68.1671 68.532 72.3009 68.743 76.7317C72.6463 70.613 78.7449 67.5105 83.3866 67.5105ZM85.9185 97.9984C89.1888 94.5171 90.9822 89.7698 90.9822 84.3896C90.9822 78.06 89.6108 72.8907 84.1251 72.8907C77.6899 72.8907 70.3053 80.5918 70.3053 89.6644C70.3053 93.4622 70.4108 100.003 70.7273 103.379C70.8328 104.328 71.5712 104.645 72.4152 104.645C76.002 104.645 82.8591 101.163 85.9185 97.9984Z" fill="#8F0F0F"/>
</svg>
